<svg width="20" height="20" viewBox="0 0 20 20" fill="none" xmlns="http://www.w3.org/2000/svg">
<path d="M18.3327 5.95312V14.2865C18.3327 14.839 18.1132 15.3689 17.7225 15.7596C17.3318 16.1503 16.8019 16.3698 16.2493 16.3698H3.74935C3.19681 16.3698 2.66691 16.1503 2.27621 15.7596C1.88551 15.3689 1.66602 14.839 1.66602 14.2865V5.95312" stroke="#3E8500" stroke-width="1.4" stroke-linecap="round" stroke-linejoin="round"/>
<path d="M18.3327 5.95052C18.3327 5.39799 18.1132 4.86808 17.7225 4.47738C17.3318 4.08668 16.8019 3.86719 16.2493 3.86719H3.74935C3.19681 3.86719 2.66691 4.08668 2.27621 4.47738C1.88551 4.86808 1.66602 5.39799 1.66602 5.95052L8.89518 10.4644C9.22629 10.6714 9.60889 10.7811 9.99935 10.7811C10.3898 10.7811 10.7724 10.6714 11.1035 10.4644L18.3327 5.95052Z" stroke="#3E8500" stroke-width="1.4" stroke-linecap="round" stroke-linejoin="round"/>
</svg>
