<svg width="20" height="20" viewBox="0 0 20 20" fill="none" xmlns="http://www.w3.org/2000/svg">
<path d="M12.2509 17.3861L12.26 17.3925C13.0471 17.8936 13.9815 18.1112 14.909 18.0094C15.8365 17.9075 16.7014 17.4923 17.361 16.8323L17.9339 16.2593C18.0609 16.1324 18.1616 15.9818 18.2303 15.816C18.299 15.6501 18.3344 15.4724 18.3344 15.2929C18.3344 15.1134 18.299 14.9356 18.2303 14.7698C18.1616 14.604 18.0609 14.4533 17.9339 14.3264L15.5173 11.9117C15.3905 11.7847 15.2398 11.684 15.074 11.6153C14.9081 11.5466 14.7304 11.5112 14.5509 11.5112C14.3714 11.5112 14.1937 11.5466 14.0278 11.6153C13.862 11.684 13.7113 11.7847 13.5845 11.9117C13.3282 12.1678 12.9808 12.3117 12.6185 12.3117C12.2562 12.3117 11.9087 12.1678 11.6525 11.9117L7.78853 8.04683C7.53238 7.79061 7.38849 7.44314 7.38849 7.08085C7.38849 6.71855 7.53238 6.37108 7.78853 6.11486C7.91549 5.98797 8.01621 5.83731 8.08493 5.67148C8.15365 5.50566 8.18902 5.32792 8.18902 5.14841C8.18902 4.96891 8.15365 4.79117 8.08493 4.62534C8.01621 4.45952 7.91549 4.30886 7.78853 4.18197L5.37287 1.76723C5.11665 1.51108 4.76918 1.36719 4.40688 1.36719C4.04458 1.36719 3.69712 1.51108 3.44089 1.76723L2.86704 2.34017C2.20719 2.99981 1.79213 3.86483 1.69044 4.79229C1.58875 5.71975 1.80652 6.65415 2.30776 7.4411L2.31323 7.45021C4.96041 11.3668 8.33385 14.7396 12.2509 17.3861V17.3861Z" stroke="#3E8500" stroke-width="1.4" stroke-linecap="round" stroke-linejoin="round"/>
</svg>
