<svg width="88" height="88" viewBox="0 0 88 88" fill="none" xmlns="http://www.w3.org/2000/svg">
<path d="M25.2815 37.8635C33.134 37.8635 39.5 44.2745 39.5 52.1825C39.5 60.089 33.134 66.5 25.2815 66.5C17.429 66.5 11.063 60.089 11.063 52.1825L11 50.1365C11 34.3205 23.732 21.5 39.437 21.5V29.6825C34.0115 29.6825 28.91 31.8095 25.0745 35.6735C24.335 36.416 23.6615 37.208 23.054 38.039C23.78 37.9235 24.524 37.8635 25.2815 37.8635ZM62.7815 37.8635C70.634 37.8635 77 44.2745 77 52.1825C77 60.089 70.634 66.5 62.7815 66.5C54.929 66.5 48.563 60.089 48.563 52.1825L48.5 50.1365C48.5 34.3205 61.232 21.5 76.937 21.5V29.6825C71.5115 29.6825 66.41 31.8095 62.5745 35.6735C61.835 36.416 61.1615 37.208 60.554 38.039C61.28 37.9235 62.024 37.8635 62.7815 37.8635Z" fill="#CCEDAF"/>
</svg>
